<svg width="50" height="50" viewBox="0 0 50 50" fill="none" xmlns="http://www.w3.org/2000/svg">
<path d="M16.5493 40.7277C19.5227 42.2926 22.3396 43.0751 25 43.0751C27.6604 43.0751 30.4382 42.2926 33.3333 40.7277C36.3067 39.1628 38.5368 37.2457 40.0235 34.9765C39.9452 32.7856 38.1847 30.9468 34.7418 29.4601C31.2989 27.9734 28.0516 27.23 25 27.23C21.9484 27.23 18.7011 27.9734 15.2582 29.4601C11.8153 30.8685 10.0548 32.7074 9.97653 34.9765C11.4632 37.2457 13.6541 39.1628 16.5493 40.7277ZM30.2817 9.74178C28.795 8.25509 27.0344 7.51174 25 7.51174C22.9656 7.51174 21.205 8.25509 19.7183 9.74178C18.2316 11.2285 17.4883 12.989 17.4883 15.0235C17.4883 17.0579 18.2316 18.8185 19.7183 20.3052C21.205 21.7919 22.9656 22.5352 25 22.5352C27.0344 22.5352 28.795 21.7919 30.2817 20.3052C31.7684 18.8185 32.5117 17.0579 32.5117 15.0235C32.5117 12.989 31.7684 11.2285 30.2817 9.74178ZM7.277 7.39437C12.2066 2.46479 18.1142 0 25 0C31.8858 0 37.7543 2.46479 42.6056 7.39437C47.5352 12.2457 50 18.1142 50 25C50 31.8858 47.5352 37.7934 42.6056 42.723C37.7543 47.5743 31.8858 50 25 50C18.1142 50 12.2066 47.5743 7.277 42.723C2.42567 37.7934 0 31.8858 0 25C0 18.1142 2.42567 12.2457 7.277 7.39437Z" fill="url(#paint0_linear)"/>
<defs>
<linearGradient id="paint0_linear" x1="-42.6056" y1="24.9999" x2="92.6056" y2="24.9999" gradientUnits="userSpaceOnUse">
<stop stop-color="#F27A54"/>
<stop offset="1" stop-color="#A154F2"/>
</linearGradient>
</defs>
</svg>
