<svg width="71" height="71" viewBox="0 0 71 71" fill="none" xmlns="http://www.w3.org/2000/svg">
<path d="M15.1309 55.8691C20.7227 61.3513 27.3562 64.0924 35.0312 64.0924C42.7063 64.0924 49.285 61.3513 54.7672 55.8691C60.359 50.2773 63.1549 43.6438 63.1549 35.9688C63.1549 28.2937 60.359 21.715 54.7672 16.2328C49.285 10.641 42.7063 7.84507 35.0312 7.84507C27.3562 7.84507 20.7227 10.641 15.1309 16.2328C9.64867 21.715 6.90757 28.2937 6.90757 35.9688C6.90757 43.6438 9.64867 50.2773 15.1309 55.8691ZM10.1969 11.2989C17.1045 4.39129 25.3826 0.9375 35.0312 0.9375C44.6799 0.9375 52.9032 4.39129 59.7011 11.2989C66.6087 18.0968 70.0625 26.3201 70.0625 35.9688C70.0625 45.6174 66.6087 53.8955 59.7011 60.8031C52.9032 67.601 44.6799 71 35.0312 71C25.3826 71 17.1045 67.601 10.1969 60.8031C3.39896 53.8955 0 45.6174 0 35.9688C0 26.3201 3.39896 18.0968 10.1969 11.2989Z" fill="url(#paint0_linear)"/>
<path d="M51.1291 34.5616C51.7958 34.9465 51.7958 35.9087 51.1291 36.2936L27.8146 49.7543C27.1479 50.1392 26.3146 49.658 26.3146 48.8882L26.3146 21.9669C26.3146 21.1971 27.1479 20.716 27.8146 21.1009L51.1291 34.5616Z" fill="url(#paint1_linear)"/>
<defs>
<linearGradient id="paint0_linear" x1="-24.7997" y1="35.9687" x2="94.8622" y2="35.9687" gradientUnits="userSpaceOnUse">
<stop stop-color="#F27A54"/>
<stop offset="1" stop-color="#A154F2"/>
</linearGradient>
<linearGradient id="paint1_linear" x1="39.4718" y1="9.47946" x2="39.4718" y2="61.3757" gradientUnits="userSpaceOnUse">
<stop stop-color="#F27A54"/>
<stop offset="1" stop-color="#A154F2"/>
</linearGradient>
</defs>
</svg>
