<svg width="71" height="71" viewBox="0 0 71 71" fill="none" xmlns="http://www.w3.org/2000/svg">
<path d="M15.1309 54.9316C20.7227 60.4138 27.3562 63.1549 35.0312 63.1549C42.7063 63.1549 49.285 60.4138 54.7672 54.9316C60.359 49.3398 63.1549 42.7063 63.1549 35.0312C63.1549 27.3562 60.359 20.7775 54.7672 15.2953C49.285 9.70349 42.7063 6.90757 35.0312 6.90757C27.3562 6.90757 20.7227 9.70349 15.1309 15.2953C9.64867 20.7775 6.90757 27.3562 6.90757 35.0312C6.90757 42.7063 9.64867 49.3398 15.1309 54.9316ZM10.1969 10.3614C17.1045 3.45379 25.3826 0 35.0312 0C44.6799 0 52.9032 3.45379 59.7011 10.3614C66.6087 17.1593 70.0625 25.3826 70.0625 35.0312C70.0625 44.6799 66.6087 52.958 59.7011 59.8656C52.9032 66.6635 44.6799 70.0625 35.0312 70.0625C25.3826 70.0625 17.1045 66.6635 10.1969 59.8656C3.39896 52.958 0 44.6799 0 35.0312C0 25.3826 3.39896 17.1593 10.1969 10.3614Z" fill="url(#paint0_linear)"/>
<path fill-rule="evenodd" clip-rule="evenodd" d="M40.844 20.0303C40.844 20.0479 40.7447 20.0605 40.6055 20.0605C40.4664 20.0605 40.367 20.0732 40.367 20.0908C40.367 20.1081 40.2775 20.1211 40.1583 20.1211C40.039 20.1211 39.9495 20.1341 39.9495 20.1514C39.9495 20.168 39.8825 20.1816 39.8005 20.1816C39.7185 20.1816 39.6514 20.1953 39.6514 20.2119C39.6514 20.2286 39.5977 20.2422 39.5321 20.2422C39.4665 20.2422 39.4128 20.2558 39.4128 20.2725C39.4128 20.2891 39.3592 20.3027 39.2936 20.3027C39.228 20.3027 39.1743 20.3164 39.1743 20.333C39.1743 20.3497 39.1206 20.3633 39.055 20.3633C38.9895 20.3633 38.9358 20.3769 38.9358 20.3936C38.9358 20.4102 38.8955 20.4238 38.8463 20.4238C38.7971 20.4238 38.7569 20.4375 38.7569 20.4541C38.7569 20.4708 38.7166 20.4844 38.6674 20.4844C38.6182 20.4844 38.578 20.498 38.578 20.5146C38.578 20.5313 38.5377 20.5449 38.4885 20.5449C38.4393 20.5449 38.3991 20.5585 38.3991 20.5752C38.3991 20.5918 38.3588 20.6055 38.3096 20.6055C38.2604 20.6055 38.2202 20.6191 38.2202 20.6357C38.2202 20.6524 38.1933 20.666 38.1606 20.666C38.1278 20.666 38.1009 20.6796 38.1009 20.6963C38.1009 20.7129 38.0607 20.7266 38.0115 20.7266C37.9623 20.7266 37.922 20.7402 37.922 20.7568C37.922 20.7735 37.8952 20.7871 37.8624 20.7871C37.8296 20.7871 37.8028 20.8007 37.8028 20.8174C37.8028 20.834 37.7625 20.8477 37.7133 20.8477C37.6641 20.8477 37.6239 20.8613 37.6239 20.8779C37.6239 20.8946 37.597 20.9082 37.5642 20.9082C37.5314 20.9082 37.5046 20.9218 37.5046 20.9385C37.5046 20.9551 37.4778 20.9688 37.445 20.9688C37.4122 20.9688 37.3853 20.9824 37.3853 20.999C37.3853 21.0157 37.3614 21.0293 37.3323 21.0293C37.3031 21.0293 37.2599 21.0565 37.2362 21.0898C37.2126 21.1231 37.1694 21.1504 37.1402 21.1504C37.111 21.1504 37.0872 21.164 37.0872 21.1807C37.0872 21.1973 37.0603 21.2109 37.0275 21.2109C36.9947 21.2109 36.9679 21.2246 36.9679 21.2412C36.9679 21.2579 36.944 21.2715 36.9148 21.2715C36.8857 21.2715 36.8425 21.2987 36.8188 21.332C36.7952 21.3653 36.7549 21.3926 36.7294 21.3926C36.7038 21.3926 36.6636 21.4198 36.6399 21.4531C36.6163 21.4864 36.5784 21.5137 36.5558 21.5137C36.5333 21.5137 36.4771 21.5545 36.4312 21.6045C36.3852 21.6544 36.3322 21.6953 36.3134 21.6953C36.2946 21.6953 36.1866 21.7907 36.0734 21.9072C35.9602 22.0238 35.8529 22.1191 35.835 22.1191C35.7925 22.1191 35.656 22.2579 35.656 22.3011C35.656 22.3194 35.5755 22.4146 35.4771 22.5127C35.3787 22.6108 35.2982 22.7092 35.2982 22.7314C35.2982 22.7536 35.2713 22.7914 35.2385 22.8154C35.2057 22.8394 35.1789 22.8803 35.1789 22.9062C35.1789 22.9322 35.1521 22.9731 35.1193 22.9971C35.0865 23.0211 35.0596 23.0649 35.0596 23.0946C35.0596 23.1242 35.0462 23.1484 35.0298 23.1484C35.0134 23.1484 35 23.1727 35 23.2023C35 23.2319 34.9732 23.2758 34.9404 23.2998C34.9076 23.3238 34.8807 23.3677 34.8807 23.3973C34.8807 23.4269 34.8673 23.4512 34.8509 23.4512C34.8345 23.4512 34.8211 23.4784 34.8211 23.5117C34.8211 23.545 34.8077 23.5723 34.7913 23.5723C34.7749 23.5723 34.7615 23.5995 34.7615 23.6328C34.7615 23.6661 34.7481 23.6934 34.7317 23.6934C34.7153 23.6934 34.7018 23.7342 34.7018 23.7842C34.7018 23.8341 34.6884 23.875 34.672 23.875C34.6556 23.875 34.6422 23.9022 34.6422 23.9355C34.6422 23.9688 34.6288 23.9961 34.6124 23.9961C34.596 23.9961 34.5826 24.037 34.5826 24.0869C34.5826 24.1369 34.5692 24.1777 34.5528 24.1777C34.5364 24.1777 34.5229 24.2186 34.5229 24.2686C34.5229 24.3185 34.5095 24.3594 34.4931 24.3594C34.4767 24.3594 34.4633 24.4002 34.4633 24.4502C34.4633 24.5001 34.4499 24.541 34.4335 24.541C34.4171 24.541 34.4037 24.5819 34.4037 24.6318C34.4037 24.6818 34.3903 24.7227 34.3739 24.7227C34.3575 24.7227 34.344 24.7771 34.344 24.8438C34.344 24.9104 34.3306 24.9648 34.3142 24.9648C34.2978 24.9648 34.2844 25.033 34.2844 25.1162C34.2844 25.1995 34.271 25.2676 34.2546 25.2676C34.238 25.2676 34.2248 25.3483 34.2248 25.4492C34.2248 25.5501 34.2115 25.6309 34.195 25.6309C34.1771 25.6309 34.1651 25.752 34.1651 25.9336C34.1651 26.1152 34.1532 26.2363 34.1353 26.2363C34.1189 26.2363 34.1055 26.2982 34.1055 26.3739C34.1055 26.4797 34.1224 26.5287 34.1787 26.5858C34.219 26.6267 34.2726 26.6602 34.298 26.6602C34.3233 26.6602 34.344 26.6738 34.344 26.6904C34.344 26.7071 34.3709 26.7207 34.4037 26.7207C34.4365 26.7207 34.4633 26.7343 34.4633 26.751C34.4633 26.7676 34.4872 26.7812 34.5163 26.7812C34.5455 26.7812 34.5887 26.8085 34.6124 26.8418C34.636 26.8751 34.6792 26.9023 34.7084 26.9023C34.7376 26.9023 34.7615 26.916 34.7615 26.9326C34.7615 26.9493 34.7854 26.9629 34.8145 26.9629C34.8437 26.9629 34.8869 26.9901 34.9106 27.0234C34.9342 27.0567 34.9744 27.084 35 27.084C35.0256 27.084 35.0658 27.0567 35.0894 27.0234C35.1131 26.9901 35.1563 26.9629 35.1855 26.9629C35.2146 26.9629 35.2385 26.9493 35.2385 26.9326C35.2385 26.916 35.2624 26.9023 35.2916 26.9023C35.3208 26.9023 35.364 26.8751 35.3876 26.8418C35.4113 26.8085 35.4545 26.7812 35.4837 26.7812C35.5128 26.7812 35.5367 26.7676 35.5367 26.751C35.5367 26.7343 35.5635 26.7207 35.5963 26.7207C35.6291 26.7207 35.656 26.7071 35.656 26.6904C35.656 26.6738 35.6798 26.6602 35.709 26.6602C35.7382 26.6602 35.7814 26.6329 35.805 26.5996C35.8287 26.5663 35.8719 26.5391 35.9011 26.5391C35.9302 26.5391 35.9541 26.5254 35.9541 26.5088C35.9541 26.4921 35.981 26.4785 36.0138 26.4785C36.0466 26.4785 36.0734 26.4649 36.0734 26.4482C36.0734 26.4316 36.1002 26.418 36.133 26.418C36.1658 26.418 36.1927 26.4043 36.1927 26.3877C36.1927 26.371 36.2329 26.3574 36.2821 26.3574C36.3313 26.3574 36.3716 26.3438 36.3716 26.3271C36.3716 26.3105 36.3984 26.2969 36.4312 26.2969C36.464 26.2969 36.4908 26.2833 36.4908 26.2666C36.4908 26.25 36.5177 26.2363 36.5505 26.2363C36.5833 26.2363 36.6101 26.2227 36.6101 26.2061C36.6101 26.1894 36.6503 26.1758 36.6995 26.1758C36.7487 26.1758 36.789 26.1622 36.789 26.1455C36.789 26.1289 36.8158 26.1152 36.8486 26.1152C36.8814 26.1152 36.9083 26.1016 36.9083 26.085C36.9083 26.0683 36.9485 26.0547 36.9977 26.0547C37.0469 26.0547 37.0872 26.0411 37.0872 26.0244C37.0872 26.0078 37.1274 25.9941 37.1766 25.9941C37.2258 25.9941 37.2661 25.9805 37.2661 25.9639C37.2661 25.9472 37.3063 25.9336 37.3555 25.9336C37.4047 25.9336 37.445 25.92 37.445 25.9033C37.445 25.8867 37.4986 25.873 37.5642 25.873C37.6298 25.873 37.6835 25.8594 37.6835 25.8428C37.6835 25.8261 37.7372 25.8125 37.8028 25.8125C37.8683 25.8125 37.922 25.7989 37.922 25.7822C37.922 25.7656 37.9623 25.752 38.0115 25.752C38.0607 25.752 38.1009 25.7383 38.1009 25.7217C38.1009 25.7048 38.1804 25.6914 38.2798 25.6914C38.3792 25.6914 38.4587 25.678 38.4587 25.6611C38.4587 25.6445 38.5258 25.6309 38.6078 25.6309C38.6898 25.6309 38.7569 25.6172 38.7569 25.6006C38.7569 25.5826 38.8662 25.5703 39.0252 25.5703C39.1842 25.5703 39.2936 25.558 39.2936 25.54C39.2936 25.5205 39.6216 25.5098 40.2179 25.5098C40.8142 25.5098 41.1422 25.5205 41.1422 25.54C41.1422 25.5573 41.2317 25.5703 41.3509 25.5703C41.4702 25.5703 41.5596 25.5833 41.5596 25.6006C41.5596 25.6477 41.8265 25.6367 41.8748 25.5876C41.8983 25.5638 41.9174 25.5093 41.9174 25.4665C41.9174 25.4237 41.9308 25.3887 41.9472 25.3887C41.9636 25.3887 41.9771 25.3478 41.9771 25.2979C41.9771 25.2479 41.9905 25.207 42.0069 25.207C42.0233 25.207 42.0367 25.1525 42.0367 25.0859C42.0367 25.0193 42.0501 24.9648 42.0665 24.9648C42.0829 24.9648 42.0963 24.9104 42.0963 24.8438C42.0963 24.7771 42.1097 24.7227 42.1261 24.7227C42.1427 24.7227 42.156 24.6419 42.156 24.541C42.156 24.4401 42.1692 24.3594 42.1858 24.3594C42.2024 24.3594 42.2156 24.2786 42.2156 24.1777C42.2156 24.0768 42.2288 23.9961 42.2454 23.9961C42.2638 23.9961 42.2752 23.8447 42.2752 23.6025C42.2752 23.3604 42.2867 23.209 42.305 23.209C42.3235 23.209 42.3349 23.0475 42.3349 22.7852C42.3349 22.5228 42.3235 22.3613 42.305 22.3613C42.2868 22.3613 42.2752 22.22 42.2752 21.998C42.2752 21.7761 42.2636 21.6348 42.2454 21.6348C42.228 21.6348 42.2156 21.5339 42.2156 21.3926C42.2156 21.2513 42.2032 21.1504 42.1858 21.1504C42.1694 21.1504 42.156 21.0823 42.156 20.999C42.156 20.9158 42.1425 20.8477 42.1261 20.8477C42.1097 20.8477 42.0963 20.7932 42.0963 20.7266C42.0963 20.66 42.0829 20.6055 42.0665 20.6055C42.0501 20.6055 42.0367 20.5782 42.0367 20.5449C42.0367 20.5116 42.0233 20.4844 42.0069 20.4844C41.9905 20.4844 41.9771 20.4635 41.9771 20.438C41.9771 20.3777 41.784 20.1816 41.7246 20.1816C41.6995 20.1816 41.6789 20.168 41.6789 20.1514C41.6789 20.1347 41.6521 20.1211 41.6193 20.1211C41.5865 20.1211 41.5596 20.1075 41.5596 20.0908C41.5596 20.0742 41.5194 20.0605 41.4702 20.0605C41.421 20.0605 41.3807 20.0469 41.3807 20.0303C41.3807 20.0123 41.2714 20 41.1124 20C40.9534 20 40.844 20.0123 40.844 20.0303ZM29.2752 27.3564C29.2752 27.3741 29.1759 27.3867 29.0367 27.3867C28.8975 27.3867 28.7982 27.3993 28.7982 27.417C28.7982 27.4343 28.7087 27.4473 28.5894 27.4473C28.4702 27.4473 28.3807 27.4603 28.3807 27.4775C28.3807 27.4942 28.3136 27.5078 28.2317 27.5078C28.1497 27.5078 28.0826 27.5214 28.0826 27.5381C28.0826 27.5547 28.0289 27.5684 27.9633 27.5684C27.8977 27.5684 27.844 27.582 27.844 27.5986C27.844 27.6153 27.7904 27.6289 27.7248 27.6289C27.6592 27.6289 27.6055 27.6425 27.6055 27.6592C27.6055 27.6758 27.5653 27.6895 27.5161 27.6895C27.4669 27.6895 27.4266 27.7031 27.4266 27.7197C27.4266 27.7364 27.3864 27.75 27.3372 27.75C27.288 27.75 27.2477 27.7636 27.2477 27.7803C27.2477 27.7969 27.2075 27.8105 27.1583 27.8105C27.1091 27.8105 27.0688 27.8242 27.0688 27.8408C27.0688 27.8575 27.042 27.8711 27.0092 27.8711C26.9764 27.8711 26.9495 27.8847 26.9495 27.9014C26.9495 27.918 26.9093 27.9316 26.8601 27.9316C26.8109 27.9316 26.7706 27.9453 26.7706 27.9619C26.7706 27.9786 26.7438 27.9922 26.711 27.9922C26.6782 27.9922 26.6514 28.0058 26.6514 28.0225C26.6514 28.0391 26.6245 28.0527 26.5917 28.0527C26.5589 28.0527 26.5321 28.0664 26.5321 28.083C26.5321 28.0997 26.5053 28.1133 26.4725 28.1133C26.4397 28.1133 26.4128 28.1269 26.4128 28.1436C26.4128 28.1602 26.386 28.1738 26.3532 28.1738C26.3204 28.1738 26.2936 28.1875 26.2936 28.2041C26.2936 28.2208 26.2667 28.2344 26.2339 28.2344C26.2011 28.2344 26.1743 28.248 26.1743 28.2646C26.1743 28.2813 26.1504 28.2949 26.1213 28.2949C26.0921 28.2949 26.0489 28.3222 26.0252 28.3555C26.0016 28.3888 25.9584 28.416 25.9292 28.416C25.9 28.416 25.8761 28.4296 25.8761 28.4463C25.8761 28.4629 25.8523 28.4766 25.8231 28.4766C25.7939 28.4766 25.7507 28.5038 25.7271 28.5371C25.7034 28.5704 25.6632 28.5977 25.6376 28.5977C25.6121 28.5977 25.5718 28.6249 25.5482 28.6582C25.5245 28.6915 25.4867 28.7188 25.4641 28.7188C25.4415 28.7188 25.3854 28.7596 25.3394 28.8096C25.2935 28.8595 25.2398 28.9004 25.2202 28.9004C25.2005 28.9004 25.1469 28.9413 25.1009 28.9912C25.055 29.0412 25.0025 29.082 24.9844 29.082C24.9416 29.082 24.0275 30.0096 24.0275 30.0529C24.0275 30.071 23.9739 30.1382 23.9083 30.2021C23.8427 30.2661 23.789 30.3345 23.789 30.3541C23.789 30.3737 23.7487 30.428 23.6995 30.4746C23.6503 30.5213 23.6101 30.5782 23.6101 30.6012C23.6101 30.6241 23.5833 30.6625 23.5505 30.6865C23.5177 30.7105 23.4908 30.7514 23.4908 30.7773C23.4908 30.8033 23.464 30.8442 23.4312 30.8682C23.3984 30.8922 23.3716 30.936 23.3716 30.9657C23.3716 30.9953 23.3581 31.0195 23.3417 31.0195C23.3253 31.0195 23.3119 31.0438 23.3119 31.0734C23.3119 31.103 23.2851 31.1469 23.2523 31.1709C23.2195 31.1949 23.1927 31.2388 23.1927 31.2684C23.1927 31.298 23.1792 31.3223 23.1628 31.3223C23.1464 31.3223 23.133 31.3495 23.133 31.3828C23.133 31.4161 23.1196 31.4434 23.1032 31.4434C23.0868 31.4434 23.0734 31.4706 23.0734 31.5039C23.0734 31.5372 23.06 31.5645 23.0436 31.5645C23.0272 31.5645 23.0138 31.5917 23.0138 31.625C23.0138 31.6583 23.0003 31.6855 22.9839 31.6855C22.9675 31.6855 22.9541 31.7128 22.9541 31.7461C22.9541 31.7794 22.9407 31.8066 22.9243 31.8066C22.9079 31.8066 22.8945 31.8339 22.8945 31.8672C22.8945 31.9005 22.8811 31.9277 22.8647 31.9277C22.8483 31.9277 22.8349 31.9686 22.8349 32.0186C22.8349 32.0685 22.8214 32.1094 22.805 32.1094C22.7886 32.1094 22.7752 32.1366 22.7752 32.1699C22.7752 32.2032 22.7618 32.2305 22.7454 32.2305C22.729 32.2305 22.7156 32.2577 22.7156 32.291C22.7156 32.3243 22.7022 32.3516 22.6858 32.3516C22.6694 32.3516 22.656 32.3924 22.656 32.4424C22.656 32.4923 22.6425 32.5332 22.6261 32.5332C22.6097 32.5332 22.5963 32.5741 22.5963 32.624C22.5963 32.674 22.5829 32.7148 22.5665 32.7148C22.5501 32.7148 22.5367 32.7557 22.5367 32.8057C22.5367 32.8556 22.5233 32.8965 22.5069 32.8965C22.4905 32.8965 22.4771 32.9374 22.4771 32.9873C22.4771 33.0373 22.4636 33.0781 22.4472 33.0781C22.4308 33.0781 22.4174 33.119 22.4174 33.1689C22.4174 33.2189 22.404 33.2598 22.3876 33.2598C22.3712 33.2598 22.3578 33.3143 22.3578 33.3809C22.3578 33.4475 22.3444 33.502 22.328 33.502C22.3116 33.502 22.2982 33.5564 22.2982 33.623C22.2982 33.6896 22.2847 33.7441 22.2683 33.7441C22.2519 33.7441 22.2385 33.7986 22.2385 33.8652C22.2385 33.9318 22.2251 33.9863 22.2087 33.9863C22.1921 33.9863 22.1789 34.0671 22.1789 34.168C22.1789 34.2689 22.1657 34.3496 22.1491 34.3496C22.1321 34.3496 22.1193 34.4404 22.1193 34.5615C22.1193 34.6826 22.1065 34.7734 22.0894 34.7734C22.0718 34.7734 22.0596 34.8844 22.0596 35.0459C22.0596 35.2073 22.0475 35.3184 22.0298 35.3184C22.0105 35.3184 22 35.6917 22 36.3779C22 37.0641 22.0105 37.4375 22.0298 37.4375C22.0477 37.4375 22.0596 37.5586 22.0596 37.7402C22.0596 37.9219 22.0716 38.043 22.0894 38.043C22.1068 38.043 22.1193 38.1439 22.1193 38.2852C22.1193 38.4264 22.1317 38.5273 22.1491 38.5273C22.1661 38.5273 22.1789 38.6182 22.1789 38.7393C22.1789 38.8604 22.1917 38.9512 22.2087 38.9512C22.2251 38.9512 22.2385 39.0193 22.2385 39.1025C22.2385 39.1858 22.2519 39.2539 22.2683 39.2539C22.2847 39.2539 22.2982 39.322 22.2982 39.4053C22.2982 39.4885 22.3116 39.5566 22.328 39.5566C22.3444 39.5566 22.3578 39.6248 22.3578 39.708C22.3578 39.7913 22.3712 39.8594 22.3876 39.8594C22.404 39.8594 22.4174 39.9139 22.4174 39.9805C22.4174 40.0471 22.4308 40.1016 22.4472 40.1016C22.4636 40.1016 22.4771 40.1561 22.4771 40.2227C22.4771 40.2893 22.4905 40.3438 22.5069 40.3438C22.5233 40.3438 22.5367 40.3982 22.5367 40.4648C22.5367 40.5314 22.5501 40.5859 22.5665 40.5859C22.5829 40.5859 22.5963 40.6404 22.5963 40.707C22.5963 40.7736 22.6097 40.8281 22.6261 40.8281C22.6425 40.8281 22.656 40.8826 22.656 40.9492C22.656 41.0158 22.6694 41.0703 22.6858 41.0703C22.7022 41.0703 22.7156 41.1112 22.7156 41.1611C22.7156 41.2111 22.729 41.252 22.7454 41.252C22.7618 41.252 22.7752 41.2928 22.7752 41.3428C22.7752 41.3927 22.7886 41.4336 22.805 41.4336C22.8214 41.4336 22.8349 41.4881 22.8349 41.5547C22.8349 41.6213 22.8483 41.6758 22.8647 41.6758C22.8811 41.6758 22.8945 41.7167 22.8945 41.7666C22.8945 41.8166 22.9079 41.8574 22.9243 41.8574C22.9407 41.8574 22.9541 41.8983 22.9541 41.9482C22.9541 41.9982 22.9675 42.0391 22.9839 42.0391C23.0003 42.0391 23.0138 42.0799 23.0138 42.1299C23.0138 42.1798 23.0272 42.2207 23.0436 42.2207C23.06 42.2207 23.0734 42.2616 23.0734 42.3115C23.0734 42.3615 23.0868 42.4023 23.1032 42.4023C23.1196 42.4023 23.133 42.4432 23.133 42.4932C23.133 42.5431 23.1464 42.584 23.1628 42.584C23.1792 42.584 23.1927 42.6112 23.1927 42.6445C23.1927 42.6778 23.2061 42.7051 23.2225 42.7051C23.2389 42.7051 23.2523 42.7459 23.2523 42.7959C23.2523 42.8458 23.2657 42.8867 23.2821 42.8867C23.2985 42.8867 23.3119 42.9276 23.3119 42.9775C23.3119 43.0275 23.3253 43.0684 23.3417 43.0684C23.3581 43.0684 23.3716 43.0956 23.3716 43.1289C23.3716 43.1622 23.385 43.1895 23.4014 43.1895C23.4178 43.1895 23.4312 43.2303 23.4312 43.2803C23.4312 43.3302 23.4446 43.3711 23.461 43.3711C23.4774 43.3711 23.4908 43.3983 23.4908 43.4316C23.4908 43.4649 23.5042 43.4922 23.5206 43.4922C23.537 43.4922 23.5505 43.5194 23.5505 43.5527C23.5505 43.586 23.5639 43.6133 23.5803 43.6133C23.5967 43.6133 23.6101 43.6542 23.6101 43.7041C23.6101 43.7541 23.6235 43.7949 23.6399 43.7949C23.6563 43.7949 23.6697 43.8222 23.6697 43.8555C23.6697 43.8888 23.6831 43.916 23.6995 43.916C23.7159 43.916 23.7294 43.9433 23.7294 43.9766C23.7294 44.0099 23.7428 44.0371 23.7592 44.0371C23.7756 44.0371 23.789 44.0644 23.789 44.0977C23.789 44.131 23.8024 44.1582 23.8188 44.1582C23.8352 44.1582 23.8486 44.1854 23.8486 44.2188C23.8486 44.2521 23.862 44.2793 23.8784 44.2793C23.8948 44.2793 23.9083 44.3202 23.9083 44.3701C23.9083 44.4201 23.9217 44.4609 23.9381 44.4609C23.9545 44.4609 23.9679 44.4882 23.9679 44.5215C23.9679 44.5548 23.9813 44.582 23.9977 44.582C24.0141 44.582 24.0275 44.6093 24.0275 44.6426C24.0275 44.6759 24.0409 44.7031 24.0573 44.7031C24.0737 44.7031 24.0872 44.7304 24.0872 44.7637C24.0872 44.797 24.1006 44.8242 24.117 44.8242C24.1334 44.8242 24.1468 44.8515 24.1468 44.8848C24.1468 44.9181 24.1602 44.9453 24.1766 44.9453C24.193 44.9453 24.2064 44.9696 24.2064 44.9992C24.2064 45.0288 24.2333 45.0727 24.2661 45.0967C24.2989 45.1207 24.3257 45.1646 24.3257 45.1942C24.3257 45.2238 24.3391 45.248 24.3555 45.248C24.3719 45.248 24.3853 45.2753 24.3853 45.3086C24.3853 45.3419 24.3987 45.3691 24.4151 45.3691C24.4315 45.3691 24.445 45.3964 24.445 45.4297C24.445 45.463 24.4584 45.4902 24.4748 45.4902C24.4912 45.4902 24.5046 45.5145 24.5046 45.5441C24.5046 45.5737 24.5314 45.6176 24.5642 45.6416C24.597 45.6656 24.6239 45.7095 24.6239 45.7391C24.6239 45.7687 24.6373 45.793 24.6537 45.793C24.6701 45.793 24.6835 45.8202 24.6835 45.8535C24.6835 45.8868 24.6969 45.9141 24.7133 45.9141C24.7297 45.9141 24.7431 45.9383 24.7431 45.9679C24.7431 45.9976 24.77 46.0414 24.8028 46.0654C24.8356 46.0894 24.8624 46.1303 24.8624 46.1562C24.8624 46.1822 24.8892 46.2231 24.922 46.2471C24.9548 46.2711 24.9817 46.3119 24.9817 46.3379C24.9817 46.3638 25.0085 46.4047 25.0413 46.4287C25.0741 46.4527 25.1009 46.4936 25.1009 46.5195C25.1009 46.5455 25.1278 46.5863 25.1606 46.6104C25.1933 46.6344 25.2202 46.6752 25.2202 46.7012C25.2202 46.7271 25.247 46.768 25.2798 46.792C25.3126 46.816 25.3394 46.8544 25.3394 46.8774C25.3394 46.9003 25.3797 46.9573 25.4289 47.0039C25.4781 47.0506 25.5183 47.105 25.5183 47.125C25.5183 47.145 25.5586 47.1994 25.6078 47.2461C25.657 47.2927 25.6972 47.3472 25.6972 47.3672C25.6972 47.3871 25.7375 47.4416 25.7867 47.4883C25.8359 47.5349 25.8761 47.5887 25.8761 47.6077C25.8761 47.6267 25.9835 47.7501 26.1147 47.8818C26.2459 48.0136 26.3532 48.1358 26.3532 48.1533C26.3532 48.1953 27.1483 49.002 27.1897 49.002C27.2074 49.002 27.2871 49.0701 27.367 49.1533C27.4469 49.2366 27.5275 49.3047 27.5463 49.3047C27.565 49.3047 27.6319 49.3592 27.695 49.4258C27.758 49.4924 27.8278 49.5469 27.85 49.5469C27.8723 49.5469 27.9098 49.5741 27.9335 49.6074C27.9571 49.6407 27.9974 49.668 28.0229 49.668C28.0485 49.668 28.0887 49.6952 28.1124 49.7285C28.136 49.7618 28.1763 49.7891 28.2018 49.7891C28.2274 49.7891 28.2676 49.8163 28.2913 49.8496C28.3149 49.8829 28.3552 49.9102 28.3807 49.9102C28.4063 49.9102 28.4465 49.9374 28.4702 49.9707C28.4938 50.004 28.537 50.0312 28.5662 50.0312C28.5954 50.0312 28.6193 50.0449 28.6193 50.0615C28.6193 50.0782 28.6461 50.0918 28.6789 50.0918C28.7117 50.0918 28.7385 50.1054 28.7385 50.1221C28.7385 50.1387 28.7654 50.1523 28.7982 50.1523C28.831 50.1523 28.8578 50.166 28.8578 50.1826C28.8578 50.1993 28.8846 50.2129 28.9174 50.2129C28.9502 50.2129 28.9771 50.2265 28.9771 50.2432C28.9771 50.2598 29.0039 50.2734 29.0367 50.2734C29.0695 50.2734 29.0963 50.2871 29.0963 50.3037C29.0963 50.3204 29.1232 50.334 29.156 50.334C29.1888 50.334 29.2156 50.3476 29.2156 50.3643C29.2156 50.3809 29.2424 50.3945 29.2752 50.3945C29.308 50.3945 29.3349 50.4082 29.3349 50.4248C29.3349 50.4415 29.3751 50.4551 29.4243 50.4551C29.4735 50.4551 29.5138 50.4687 29.5138 50.4854C29.5138 50.502 29.5406 50.5156 29.5734 50.5156C29.6062 50.5156 29.633 50.5292 29.633 50.5459C29.633 50.5625 29.6599 50.5762 29.6927 50.5762C29.7255 50.5762 29.7523 50.5898 29.7523 50.6064C29.7523 50.6231 29.7925 50.6367 29.8417 50.6367C29.8909 50.6367 29.9312 50.6503 29.9312 50.667C29.9312 50.6836 29.9849 50.6973 30.0505 50.6973C30.1161 50.6973 30.1697 50.7109 30.1697 50.7275C30.1697 50.7442 30.21 50.7578 30.2592 50.7578C30.3084 50.7578 30.3486 50.7714 30.3486 50.7881C30.3486 50.8047 30.4023 50.8184 30.4679 50.8184C30.5335 50.8184 30.5872 50.832 30.5872 50.8486C30.5872 50.8653 30.6542 50.8789 30.7362 50.8789C30.8182 50.8789 30.8853 50.8925 30.8853 50.9092C30.8853 50.9268 30.9847 50.9395 31.1239 50.9395C31.263 50.9395 31.3624 50.9521 31.3624 50.9697C31.3624 50.9888 31.5612 51 31.8991 51C32.237 51 32.4358 50.9888 32.4358 50.9697C32.4358 50.9524 32.5252 50.9395 32.6445 50.9395C32.7638 50.9395 32.8532 50.9265 32.8532 50.9092C32.8532 50.8925 32.9203 50.8789 33.0023 50.8789C33.0843 50.8789 33.1514 50.8653 33.1514 50.8486C33.1514 50.832 33.2185 50.8184 33.3005 50.8184C33.3825 50.8184 33.4495 50.8047 33.4495 50.7881C33.4495 50.7714 33.5166 50.7578 33.5986 50.7578C33.6806 50.7578 33.7477 50.7442 33.7477 50.7275C33.7477 50.7109 33.8148 50.6973 33.8968 50.6973C33.9788 50.6973 34.0459 50.6836 34.0459 50.667C34.0459 50.6486 34.1751 50.6367 34.3739 50.6367C34.5726 50.6367 34.7018 50.6248 34.7018 50.6064C34.7018 50.5883 34.8211 50.5762 35 50.5762C35.1789 50.5762 35.2982 50.5883 35.2982 50.6064C35.2982 50.6248 35.4274 50.6367 35.6261 50.6367C35.8249 50.6367 35.9541 50.6486 35.9541 50.667C35.9541 50.6836 36.0212 50.6973 36.1032 50.6973C36.1852 50.6973 36.2523 50.7109 36.2523 50.7275C36.2523 50.7442 36.3194 50.7578 36.4014 50.7578C36.4834 50.7578 36.5505 50.7714 36.5505 50.7881C36.5505 50.8047 36.6175 50.8184 36.6995 50.8184C36.7815 50.8184 36.8486 50.832 36.8486 50.8486C36.8486 50.8653 36.9157 50.8789 36.9977 50.8789C37.0797 50.8789 37.1468 50.8925 37.1468 50.9092C37.1468 50.9265 37.2362 50.9395 37.3555 50.9395C37.4748 50.9395 37.5642 50.9524 37.5642 50.9697C37.5642 50.9888 37.763 51 38.1009 51C38.4388 51 38.6376 50.9888 38.6376 50.9697C38.6376 50.9524 38.7271 50.9395 38.8463 50.9395C38.9656 50.9395 39.055 50.9265 39.055 50.9092C39.055 50.8923 39.1346 50.8789 39.2339 50.8789C39.3333 50.8789 39.4128 50.8655 39.4128 50.8486C39.4128 50.832 39.4665 50.8184 39.5321 50.8184C39.5977 50.8184 39.6514 50.8047 39.6514 50.7881C39.6514 50.7714 39.6916 50.7578 39.7408 50.7578C39.79 50.7578 39.8303 50.7442 39.8303 50.7275C39.8303 50.7109 39.8705 50.6973 39.9197 50.6973C39.9689 50.6973 40.0092 50.6836 40.0092 50.667C40.0092 50.6503 40.0494 50.6367 40.0986 50.6367C40.1478 50.6367 40.1881 50.6231 40.1881 50.6064C40.1881 50.5898 40.2283 50.5762 40.2775 50.5762C40.3267 50.5762 40.367 50.5625 40.367 50.5459C40.367 50.5292 40.4072 50.5156 40.4564 50.5156C40.5056 50.5156 40.5459 50.502 40.5459 50.4854C40.5459 50.4687 40.5727 50.4551 40.6055 50.4551C40.6383 50.4551 40.6651 50.4415 40.6651 50.4248C40.6651 50.4082 40.692 50.3945 40.7248 50.3945C40.7576 50.3945 40.7844 50.3809 40.7844 50.3643C40.7844 50.3476 40.8112 50.334 40.844 50.334C40.8768 50.334 40.9037 50.3204 40.9037 50.3037C40.9037 50.2871 40.9305 50.2734 40.9633 50.2734C40.9961 50.2734 41.0229 50.2598 41.0229 50.2432C41.0229 50.2265 41.0498 50.2129 41.0826 50.2129C41.1154 50.2129 41.1422 50.1993 41.1422 50.1826C41.1422 50.166 41.169 50.1523 41.2018 50.1523C41.2346 50.1523 41.2615 50.1387 41.2615 50.1221C41.2615 50.1054 41.2854 50.0918 41.3145 50.0918C41.3437 50.0918 41.3869 50.0646 41.4106 50.0312C41.4342 49.9979 41.4744 49.9707 41.5 49.9707C41.5256 49.9707 41.5658 49.9435 41.5894 49.9102C41.6131 49.8769 41.6563 49.8496 41.6855 49.8496C41.7146 49.8496 41.7385 49.836 41.7385 49.8193C41.7385 49.8027 41.7624 49.7891 41.7916 49.7891C41.8208 49.7891 41.864 49.7618 41.8876 49.7285C41.9113 49.6952 41.9491 49.668 41.9717 49.668C41.9943 49.668 42.0504 49.6271 42.0963 49.5771C42.1423 49.5272 42.1957 49.4863 42.215 49.4863C42.2343 49.4863 42.3016 49.4318 42.3647 49.3652C42.4277 49.2986 42.4946 49.2441 42.5134 49.2441C42.5321 49.2441 42.6128 49.176 42.6927 49.0928C42.7725 49.0095 42.8523 48.9414 42.8699 48.9414C42.9113 48.9414 43.6468 48.1953 43.6468 48.1533C43.6468 48.1358 43.7541 48.0136 43.8853 47.8818C44.0165 47.7501 44.1239 47.6267 44.1239 47.6077C44.1239 47.5887 44.1641 47.5349 44.2133 47.4883C44.2625 47.4416 44.3028 47.3871 44.3028 47.3672C44.3028 47.3472 44.343 47.2927 44.3922 47.2461C44.4414 47.1994 44.4817 47.145 44.4817 47.125C44.4817 47.105 44.5219 47.0506 44.5711 47.0039C44.6203 46.9573 44.6606 46.9003 44.6606 46.8774C44.6606 46.8544 44.6874 46.816 44.7202 46.792C44.753 46.768 44.7798 46.7271 44.7798 46.7012C44.7798 46.6752 44.8067 46.6344 44.8394 46.6104C44.8722 46.5863 44.8991 46.5455 44.8991 46.5195C44.8991 46.4936 44.9259 46.4527 44.9587 46.4287C44.9915 46.4047 45.0183 46.3638 45.0183 46.3379C45.0183 46.3119 45.0452 46.2711 45.078 46.2471C45.1108 46.2231 45.1376 46.1822 45.1376 46.1562C45.1376 46.1303 45.1644 46.0894 45.1972 46.0654C45.23 46.0414 45.2569 45.9976 45.2569 45.9679C45.2569 45.9383 45.2703 45.9141 45.2867 45.9141C45.3031 45.9141 45.3165 45.8868 45.3165 45.8535C45.3165 45.8202 45.3299 45.793 45.3463 45.793C45.3627 45.793 45.3761 45.7687 45.3761 45.7391C45.3761 45.7095 45.403 45.6656 45.4358 45.6416C45.4686 45.6176 45.4954 45.5737 45.4954 45.5441C45.4954 45.5145 45.5088 45.4902 45.5252 45.4902C45.5416 45.4902 45.555 45.463 45.555 45.4297C45.555 45.3964 45.5685 45.3691 45.5849 45.3691C45.6013 45.3691 45.6147 45.3419 45.6147 45.3086C45.6147 45.2753 45.6281 45.248 45.6445 45.248C45.6609 45.248 45.6743 45.2238 45.6743 45.1942C45.6743 45.1646 45.7011 45.1207 45.7339 45.0967C45.7667 45.0727 45.7936 45.0288 45.7936 44.9992C45.7936 44.9696 45.807 44.9453 45.8234 44.9453C45.8398 44.9453 45.8532 44.9181 45.8532 44.8848C45.8532 44.8515 45.8666 44.8242 45.883 44.8242C45.8994 44.8242 45.9128 44.797 45.9128 44.7637C45.9128 44.7304 45.9263 44.7031 45.9427 44.7031C45.9591 44.7031 45.9725 44.6759 45.9725 44.6426C45.9725 44.6093 45.9859 44.582 46.0023 44.582C46.0187 44.582 46.0321 44.5548 46.0321 44.5215C46.0321 44.4882 46.0455 44.4609 46.0619 44.4609C46.0783 44.4609 46.0917 44.4201 46.0917 44.3701C46.0917 44.3202 46.1052 44.2793 46.1216 44.2793C46.138 44.2793 46.1514 44.2521 46.1514 44.2188C46.1514 44.1854 46.1648 44.1582 46.1812 44.1582C46.1976 44.1582 46.211 44.131 46.211 44.0977C46.211 44.0644 46.2244 44.0371 46.2408 44.0371C46.2572 44.0371 46.2706 44.0099 46.2706 43.9766C46.2706 43.9433 46.2841 43.916 46.3005 43.916C46.3169 43.916 46.3303 43.8888 46.3303 43.8555C46.3303 43.8222 46.3437 43.7949 46.3601 43.7949C46.3765 43.7949 46.3899 43.7541 46.3899 43.7041C46.3899 43.6542 46.4033 43.6133 46.4197 43.6133C46.4361 43.6133 46.4495 43.586 46.4495 43.5527C46.4495 43.5194 46.463 43.4922 46.4794 43.4922C46.4958 43.4922 46.5092 43.4649 46.5092 43.4316C46.5092 43.3983 46.5226 43.3711 46.539 43.3711C46.5554 43.3711 46.5688 43.3302 46.5688 43.2803C46.5688 43.2303 46.5822 43.1895 46.5986 43.1895C46.615 43.1895 46.6284 43.1622 46.6284 43.1289C46.6284 43.0956 46.6419 43.0684 46.6583 43.0684C46.6747 43.0684 46.6881 43.0275 46.6881 42.9775C46.6881 42.9276 46.7015 42.8867 46.7179 42.8867C46.7343 42.8867 46.7477 42.8458 46.7477 42.7959C46.7477 42.7459 46.7611 42.7051 46.7775 42.7051C46.7939 42.7051 46.8073 42.6642 46.8073 42.6143C46.8073 42.5643 46.8208 42.5234 46.8372 42.5234C46.8536 42.5234 46.867 42.4962 46.867 42.4629C46.867 42.4296 46.8804 42.4023 46.8968 42.4023C46.9132 42.4023 46.9266 42.3615 46.9266 42.3115C46.9266 42.2616 46.94 42.2207 46.9564 42.2207C46.9728 42.2207 46.9862 42.1798 46.9862 42.1299C46.9862 42.0799 46.9997 42.0391 47.0161 42.0391C47.0325 42.0391 47.0459 41.9982 47.0459 41.9482C47.0459 41.8983 47.0593 41.8574 47.0757 41.8574C47.0921 41.8574 47.1055 41.8166 47.1055 41.7666C47.1055 41.7167 47.1189 41.6758 47.1353 41.6758C47.1517 41.6758 47.1651 41.6213 47.1651 41.5547C47.1651 41.4881 47.1786 41.4336 47.195 41.4336C47.2114 41.4336 47.2248 41.3927 47.2248 41.3428C47.2248 41.2928 47.2382 41.252 47.2546 41.252C47.271 41.252 47.2844 41.2111 47.2844 41.1611C47.2844 41.1112 47.2978 41.0703 47.3142 41.0703C47.3306 41.0703 47.344 41.0158 47.344 40.9492C47.344 40.8826 47.3575 40.8281 47.3739 40.8281C47.3903 40.8281 47.4037 40.7736 47.4037 40.707C47.4037 40.6404 47.4171 40.5859 47.4335 40.5859C47.4499 40.5859 47.4633 40.5314 47.4633 40.4648C47.4633 40.3982 47.4767 40.3438 47.4931 40.3438C47.5095 40.3438 47.5229 40.2893 47.5229 40.2227C47.5229 40.1561 47.5364 40.1016 47.5528 40.1016C47.5692 40.1016 47.5826 40.0471 47.5826 39.9805C47.5826 39.9139 47.596 39.8594 47.6124 39.8594C47.6288 39.8594 47.6422 39.7913 47.6422 39.708C47.6422 39.6248 47.6556 39.5566 47.672 39.5566C47.6884 39.5566 47.7018 39.4885 47.7018 39.4053C47.7018 39.322 47.7153 39.2539 47.7317 39.2539C47.7481 39.2539 47.7615 39.1858 47.7615 39.1025C47.7615 39.0193 47.7749 38.9512 47.7913 38.9512C47.8083 38.9512 47.8211 38.8604 47.8211 38.7393C47.8211 38.6182 47.8339 38.5273 47.8509 38.5273C47.8683 38.5273 47.8807 38.4264 47.8807 38.2852C47.8807 38.1439 47.8932 38.043 47.9106 38.043C47.9284 38.043 47.9404 37.9219 47.9404 37.7402C47.9404 37.5586 47.9523 37.4375 47.9702 37.4375C47.9895 37.4375 48 37.0641 48 36.3779C48 35.6917 47.9895 35.3184 47.9702 35.3184C47.9525 35.3184 47.9404 35.2073 47.9404 35.0459C47.9404 34.8844 47.9282 34.7734 47.9106 34.7734C47.8935 34.7734 47.8807 34.6826 47.8807 34.5615C47.8807 34.4404 47.8679 34.3496 47.8509 34.3496C47.8343 34.3496 47.8211 34.2689 47.8211 34.168C47.8211 34.0671 47.8079 33.9863 47.7913 33.9863C47.7749 33.9863 47.7615 33.9318 47.7615 33.8652C47.7615 33.7986 47.7481 33.7441 47.7317 33.7441C47.7153 33.7441 47.7018 33.6896 47.7018 33.623C47.7018 33.5564 47.6884 33.502 47.672 33.502C47.6556 33.502 47.6422 33.4475 47.6422 33.3809C47.6422 33.3143 47.6288 33.2598 47.6124 33.2598C47.596 33.2598 47.5826 33.2189 47.5826 33.1689C47.5826 33.119 47.5692 33.0781 47.5528 33.0781C47.5364 33.0781 47.5229 33.0373 47.5229 32.9873C47.5229 32.9374 47.5095 32.8965 47.4931 32.8965C47.4767 32.8965 47.4633 32.8556 47.4633 32.8057C47.4633 32.7557 47.4499 32.7148 47.4335 32.7148C47.4171 32.7148 47.4037 32.674 47.4037 32.624C47.4037 32.5741 47.3903 32.5332 47.3739 32.5332C47.3575 32.5332 47.344 32.4923 47.344 32.4424C47.344 32.3924 47.3306 32.3516 47.3142 32.3516C47.2978 32.3516 47.2844 32.3243 47.2844 32.291C47.2844 32.2577 47.271 32.2305 47.2546 32.2305C47.2382 32.2305 47.2248 32.2032 47.2248 32.1699C47.2248 32.1366 47.2114 32.1094 47.195 32.1094C47.1786 32.1094 47.1651 32.0685 47.1651 32.0186C47.1651 31.9686 47.1517 31.9277 47.1353 31.9277C47.1189 31.9277 47.1055 31.9005 47.1055 31.8672C47.1055 31.8339 47.0921 31.8066 47.0757 31.8066C47.0593 31.8066 47.0459 31.7794 47.0459 31.7461C47.0459 31.7128 47.0325 31.6855 47.0161 31.6855C46.9997 31.6855 46.9862 31.6583 46.9862 31.625C46.9862 31.5917 46.9728 31.5645 46.9564 31.5645C46.94 31.5645 46.9266 31.5372 46.9266 31.5039C46.9266 31.4706 46.9132 31.4434 46.8968 31.4434C46.8804 31.4434 46.867 31.4161 46.867 31.3828C46.867 31.3495 46.8536 31.3223 46.8372 31.3223C46.8208 31.3223 46.8073 31.298 46.8073 31.2684C46.8073 31.2388 46.7805 31.1949 46.7477 31.1709C46.7149 31.1469 46.6881 31.103 46.6881 31.0734C46.6881 31.0438 46.6747 31.0195 46.6583 31.0195C46.6419 31.0195 46.6284 30.9953 46.6284 30.9657C46.6284 30.936 46.6016 30.8922 46.5688 30.8682C46.536 30.8442 46.5092 30.8033 46.5092 30.7773C46.5092 30.7514 46.4823 30.7105 46.4495 30.6865C46.4167 30.6625 46.3899 30.6241 46.3899 30.6012C46.3899 30.5782 46.3497 30.5213 46.3005 30.4746C46.2513 30.428 46.211 30.3737 46.211 30.3541C46.211 30.3345 46.1573 30.2661 46.0917 30.2021C46.0261 30.1382 45.9725 30.071 45.9725 30.0529C45.9725 30.0096 45.0584 29.082 45.0156 29.082C44.9975 29.082 44.945 29.0412 44.8991 28.9912C44.8531 28.9413 44.7995 28.9004 44.7798 28.9004C44.7602 28.9004 44.7065 28.8595 44.6606 28.8096C44.6146 28.7596 44.5585 28.7188 44.5359 28.7188C44.5133 28.7188 44.4755 28.6915 44.4518 28.6582C44.4282 28.6249 44.3879 28.5977 44.3624 28.5977C44.3368 28.5977 44.2966 28.5704 44.2729 28.5371C44.2493 28.5038 44.2061 28.4766 44.1769 28.4766C44.1477 28.4766 44.1239 28.4629 44.1239 28.4463C44.1239 28.4296 44.1 28.416 44.0708 28.416C44.0416 28.416 43.9984 28.3888 43.9748 28.3555C43.9511 28.3222 43.9079 28.2949 43.8787 28.2949C43.8496 28.2949 43.8257 28.2813 43.8257 28.2646C43.8257 28.248 43.7989 28.2344 43.7661 28.2344C43.7333 28.2344 43.7064 28.2208 43.7064 28.2041C43.7064 28.1875 43.6796 28.1738 43.6468 28.1738C43.614 28.1738 43.5872 28.1602 43.5872 28.1436C43.5872 28.1269 43.5603 28.1133 43.5275 28.1133C43.4947 28.1133 43.4679 28.0997 43.4679 28.083C43.4679 28.0664 43.4411 28.0527 43.4083 28.0527C43.3755 28.0527 43.3486 28.0391 43.3486 28.0225C43.3486 28.0058 43.3218 27.9922 43.289 27.9922C43.2562 27.9922 43.2294 27.9786 43.2294 27.9619C43.2294 27.9453 43.1891 27.9316 43.1399 27.9316C43.0907 27.9316 43.0505 27.918 43.0505 27.9014C43.0505 27.8847 43.0236 27.8711 42.9908 27.8711C42.958 27.8711 42.9312 27.8575 42.9312 27.8408C42.9312 27.8242 42.8909 27.8105 42.8417 27.8105C42.7925 27.8105 42.7523 27.7969 42.7523 27.7803C42.7523 27.7636 42.712 27.75 42.6628 27.75C42.6136 27.75 42.5734 27.7364 42.5734 27.7197C42.5734 27.7031 42.5331 27.6895 42.4839 27.6895C42.4347 27.6895 42.3945 27.6758 42.3945 27.6592C42.3945 27.6425 42.3408 27.6289 42.2752 27.6289C42.2096 27.6289 42.156 27.6153 42.156 27.5986C42.156 27.582 42.1023 27.5684 42.0367 27.5684C41.9711 27.5684 41.9174 27.5547 41.9174 27.5381C41.9174 27.5214 41.8503 27.5078 41.7683 27.5078C41.6864 27.5078 41.6193 27.4942 41.6193 27.4775C41.6193 27.4603 41.5298 27.4473 41.4106 27.4473C41.2913 27.4473 41.2018 27.4343 41.2018 27.417C41.2018 27.3993 41.1025 27.3867 40.9633 27.3867C40.8242 27.3867 40.7248 27.3741 40.7248 27.3564C40.7248 27.3375 40.5359 27.3262 40.2179 27.3262C39.8998 27.3262 39.711 27.3375 39.711 27.3564C39.711 27.3744 39.6017 27.3867 39.4427 27.3867C39.2836 27.3867 39.1743 27.399 39.1743 27.417C39.1743 27.4343 39.0849 27.4473 38.9656 27.4473C38.8463 27.4473 38.7569 27.4603 38.7569 27.4775C38.7569 27.4942 38.7032 27.5078 38.6376 27.5078C38.572 27.5078 38.5183 27.5214 38.5183 27.5381C38.5183 27.5547 38.4647 27.5684 38.3991 27.5684C38.3335 27.5684 38.2798 27.582 38.2798 27.5986C38.2798 27.6153 38.2261 27.6289 38.1606 27.6289C38.095 27.6289 38.0413 27.6425 38.0413 27.6592C38.0413 27.6758 38.001 27.6895 37.9518 27.6895C37.9026 27.6895 37.8624 27.7031 37.8624 27.7197C37.8624 27.7364 37.8221 27.75 37.7729 27.75C37.7237 27.75 37.6835 27.7636 37.6835 27.7803C37.6835 27.7969 37.6432 27.8105 37.594 27.8105C37.5448 27.8105 37.5046 27.8242 37.5046 27.8408C37.5046 27.8575 37.4643 27.8711 37.4151 27.8711C37.3659 27.8711 37.3257 27.8847 37.3257 27.9014C37.3257 27.918 37.2989 27.9316 37.2661 27.9316C37.2333 27.9316 37.2064 27.9453 37.2064 27.9619C37.2064 27.9786 37.1796 27.9922 37.1468 27.9922C37.114 27.9922 37.0872 28.0058 37.0872 28.0225C37.0872 28.0391 37.0603 28.0527 37.0275 28.0527C36.9947 28.0527 36.9679 28.0664 36.9679 28.083C36.9679 28.0997 36.9411 28.1133 36.9083 28.1133C36.8755 28.1133 36.8486 28.1269 36.8486 28.1436C36.8486 28.1602 36.8218 28.1738 36.789 28.1738C36.7562 28.1738 36.7294 28.1875 36.7294 28.2041C36.7294 28.2208 36.7025 28.2344 36.6697 28.2344C36.6369 28.2344 36.6101 28.248 36.6101 28.2646C36.6101 28.2813 36.5833 28.2949 36.5505 28.2949C36.5177 28.2949 36.4908 28.3085 36.4908 28.3252C36.4908 28.3418 36.4669 28.3555 36.4378 28.3555C36.4086 28.3555 36.3654 28.3827 36.3417 28.416C36.3181 28.4493 36.2749 28.4766 36.2457 28.4766C36.2165 28.4766 36.1927 28.4902 36.1927 28.5068C36.1927 28.5235 36.1688 28.5371 36.1396 28.5371C36.1104 28.5371 36.0672 28.5644 36.0436 28.5977C36.0199 28.631 35.9797 28.6582 35.9541 28.6582C35.9286 28.6582 35.8883 28.6854 35.8647 28.7188C35.841 28.7521 35.8032 28.7793 35.7806 28.7793C35.758 28.7793 35.7019 28.8202 35.656 28.8701C35.61 28.9201 35.5566 28.9609 35.5373 28.9609C35.518 28.9609 35.4506 29.0154 35.3876 29.082C35.3246 29.1486 35.2572 29.2031 35.2379 29.2031C35.2186 29.2031 35.1652 29.244 35.1193 29.2939C35.0733 29.3439 35.0196 29.3848 35 29.3848C34.9804 29.3848 34.9267 29.3439 34.8807 29.2939C34.8348 29.244 34.7814 29.2031 34.7621 29.2031C34.7428 29.2031 34.6754 29.1486 34.6124 29.082C34.5494 29.0154 34.482 28.9609 34.4627 28.9609C34.4434 28.9609 34.39 28.9201 34.344 28.8701C34.2981 28.8202 34.242 28.7793 34.2194 28.7793C34.1968 28.7793 34.159 28.7521 34.1353 28.7188C34.1117 28.6854 34.0685 28.6582 34.0393 28.6582C34.0101 28.6582 33.9862 28.6446 33.9862 28.6279C33.9862 28.6113 33.9624 28.5977 33.9332 28.5977C33.904 28.5977 33.8608 28.5704 33.8372 28.5371C33.8135 28.5038 33.7733 28.4766 33.7477 28.4766C33.7222 28.4766 33.6819 28.4493 33.6583 28.416C33.6346 28.3827 33.5914 28.3555 33.5622 28.3555C33.5331 28.3555 33.5092 28.3418 33.5092 28.3252C33.5092 28.3085 33.4823 28.2949 33.4495 28.2949C33.4167 28.2949 33.3899 28.2813 33.3899 28.2646C33.3899 28.248 33.3631 28.2344 33.3303 28.2344C33.2975 28.2344 33.2706 28.2208 33.2706 28.2041C33.2706 28.1875 33.2438 28.1738 33.211 28.1738C33.1782 28.1738 33.1514 28.1602 33.1514 28.1436C33.1514 28.1269 33.1245 28.1133 33.0917 28.1133C33.0589 28.1133 33.0321 28.0997 33.0321 28.083C33.0321 28.0664 33.0053 28.0527 32.9725 28.0527C32.9397 28.0527 32.9128 28.0391 32.9128 28.0225C32.9128 28.0058 32.886 27.9922 32.8532 27.9922C32.8204 27.9922 32.7936 27.9786 32.7936 27.9619C32.7936 27.9453 32.7667 27.9316 32.7339 27.9316C32.7011 27.9316 32.6743 27.918 32.6743 27.9014C32.6743 27.8847 32.6341 27.8711 32.5849 27.8711C32.5357 27.8711 32.4954 27.8575 32.4954 27.8408C32.4954 27.8242 32.4552 27.8105 32.406 27.8105C32.3568 27.8105 32.3165 27.7969 32.3165 27.7803C32.3165 27.7636 32.2763 27.75 32.2271 27.75C32.1779 27.75 32.1376 27.7364 32.1376 27.7197C32.1376 27.7031 32.0974 27.6895 32.0482 27.6895C31.999 27.6895 31.9587 27.6758 31.9587 27.6592C31.9587 27.6425 31.9185 27.6289 31.8693 27.6289C31.8201 27.6289 31.7798 27.6153 31.7798 27.5986C31.7798 27.582 31.7127 27.5684 31.6307 27.5684C31.5487 27.5684 31.4817 27.5547 31.4817 27.5381C31.4817 27.5214 31.428 27.5078 31.3624 27.5078C31.2968 27.5078 31.2431 27.4942 31.2431 27.4775C31.2431 27.4603 31.1537 27.4473 31.0344 27.4473C30.9151 27.4473 30.8257 27.4343 30.8257 27.417C30.8257 27.399 30.7164 27.3867 30.5573 27.3867C30.3983 27.3867 30.289 27.3744 30.289 27.3564C30.289 27.3375 30.1002 27.3262 29.7821 27.3262C29.4641 27.3262 29.2752 27.3375 29.2752 27.3564Z" fill="url(#paint1_linear)"/>
<defs>
<linearGradient id="paint0_linear" x1="-24.7997" y1="35.0312" x2="94.8622" y2="35.0312" gradientUnits="userSpaceOnUse">
<stop stop-color="#F27A54"/>
<stop offset="1" stop-color="#A154F2"/>
</linearGradient>
<linearGradient id="paint1_linear" x1="12.7969" y1="35.5" x2="57.2031" y2="35.5" gradientUnits="userSpaceOnUse">
<stop stop-color="#F27A54"/>
<stop offset="1" stop-color="#A154F2"/>
</linearGradient>
</defs>
</svg>
