<svg width="71" height="71" viewBox="0 0 71 71" fill="none" xmlns="http://www.w3.org/2000/svg">
<path d="M15.1309 54.9316C20.7227 60.4138 27.3562 63.1549 35.0312 63.1549C42.7063 63.1549 49.285 60.4138 54.7672 54.9316C60.359 49.3398 63.1549 42.7063 63.1549 35.0312C63.1549 27.3562 60.359 20.7775 54.7672 15.2953C49.285 9.70349 42.7063 6.90757 35.0312 6.90757C27.3562 6.90757 20.7227 9.70349 15.1309 15.2953C9.64867 20.7775 6.90757 27.3562 6.90757 35.0312C6.90757 42.7063 9.64867 49.3398 15.1309 54.9316ZM10.1969 10.3614C17.1045 3.45379 25.3826 0 35.0312 0C44.6799 0 52.9032 3.45379 59.7011 10.3614C66.6087 17.1593 70.0625 25.3826 70.0625 35.0312C70.0625 44.6799 66.6087 52.958 59.7011 59.8656C52.9032 66.6635 44.6799 70.0625 35.0312 70.0625C25.3826 70.0625 17.1045 66.6635 10.1969 59.8656C3.39896 52.958 0 44.6799 0 35.0312C0 25.3826 3.39896 17.1593 10.1969 10.3614Z" fill="url(#paint0_linear)"/>
<path d="M23.336 38.862C23.6121 38.862 23.836 39.0859 23.836 39.362V41.656C23.836 41.9321 23.6121 42.156 23.336 42.156H14.238C13.9619 42.156 13.738 41.9321 13.738 41.656V39.7646C13.738 39.6252 13.7962 39.4922 13.8985 39.3976L18.292 35.334C18.688 34.962 18.952 34.644 19.084 34.38C19.216 34.116 19.282 33.858 19.282 33.606C19.282 33.294 19.174 33.054 18.958 32.886C18.754 32.706 18.454 32.616 18.058 32.616C17.674 32.616 17.314 32.718 16.978 32.922C16.7841 33.0397 16.6162 33.1854 16.4743 33.359C16.2979 33.5747 16.0002 33.6841 15.7509 33.5595L13.4591 32.4136C13.2075 32.2878 13.1072 31.9776 13.2629 31.7433C13.7241 31.0497 14.3385 30.4886 15.106 30.06C16.03 29.532 17.146 29.268 18.454 29.268C19.45 29.268 20.332 29.43 21.1 29.754C21.868 30.078 22.468 30.54 22.9 31.14C23.332 31.74 23.548 32.43 23.548 33.21C23.548 33.906 23.398 34.56 23.098 35.172C22.81 35.772 22.24 36.456 21.388 37.224L20.5438 37.9922C20.2059 38.2997 20.4235 38.862 20.8803 38.862H23.336Z" fill="url(#paint1_linear)"/>
<path d="M36.9292 39.496C36.9292 39.7721 36.7053 39.996 36.4292 39.996H35.7552C35.479 39.996 35.2552 40.2199 35.2552 40.496V41.656C35.2552 41.9321 35.0313 42.156 34.7552 42.156H31.6332C31.357 42.156 31.1332 41.9321 31.1332 41.656V40.496C31.1332 40.2199 30.9093 39.996 30.6332 39.996H25.0992C24.823 39.996 24.5992 39.7721 24.5992 39.496V37.4519C24.5992 37.3504 24.6301 37.2513 24.6878 37.1677L29.7961 29.7718C29.8894 29.6367 30.0432 29.556 30.2075 29.556H33.3682C33.7673 29.556 34.0056 30.0006 33.7846 30.3329L30.0658 35.9251C29.8448 36.2575 30.083 36.702 30.4821 36.702H30.7592C31.0353 36.702 31.2592 36.4781 31.2592 36.202V35.276C31.2592 34.9999 31.483 34.776 31.7592 34.776H34.7552C35.0313 34.776 35.2552 34.9999 35.2552 35.276V36.202C35.2552 36.4781 35.479 36.702 35.7552 36.702H36.4292C36.7053 36.702 36.9292 36.9259 36.9292 37.202V39.496Z" fill="url(#paint2_linear)"/>
<path d="M42.4539 27.3347C42.5242 27.1342 42.7134 27 42.9258 27H45.4662C45.8107 27 46.052 27.3402 45.9381 27.6653L40.3484 43.6213C40.2782 43.8218 40.089 43.956 39.8766 43.956H37.3361C36.9917 43.956 36.7504 43.6158 36.8643 43.2907L42.4539 27.3347Z" fill="url(#paint3_linear)"/>
<path d="M55.9389 29.556C56.2151 29.556 56.4389 29.7799 56.4389 30.056V32.0653C56.4389 32.1318 56.4257 32.1976 56.3999 32.2588L52.3736 41.8495C52.2956 42.0352 52.1139 42.156 51.9126 42.156H48.3598C48.0007 42.156 47.7586 41.7887 47.9003 41.4587L51.2975 33.5473C51.4392 33.2173 51.1972 32.85 50.8381 32.85H49.6669C49.3908 32.85 49.1669 33.0739 49.1669 33.35V34.186C49.1669 34.4621 48.9431 34.686 48.6669 34.686H46.1569C45.8808 34.686 45.6569 34.4621 45.6569 34.186V30.056C45.6569 29.7799 45.8808 29.556 46.1569 29.556H55.9389Z" fill="url(#paint4_linear)"/>
<defs>
<linearGradient id="paint0_linear" x1="-24.7997" y1="35.0312" x2="94.8622" y2="35.0312" gradientUnits="userSpaceOnUse">
<stop stop-color="#F27A54"/>
<stop offset="1" stop-color="#A154F2"/>
</linearGradient>
<linearGradient id="paint1_linear" x1="-2.37589" y1="35.478" x2="71.8148" y2="35.478" gradientUnits="userSpaceOnUse">
<stop stop-color="#F27A54"/>
<stop offset="1" stop-color="#A154F2"/>
</linearGradient>
<linearGradient id="paint2_linear" x1="-2.37589" y1="35.478" x2="71.8148" y2="35.478" gradientUnits="userSpaceOnUse">
<stop stop-color="#F27A54"/>
<stop offset="1" stop-color="#A154F2"/>
</linearGradient>
<linearGradient id="paint3_linear" x1="-2.37589" y1="35.478" x2="71.8148" y2="35.478" gradientUnits="userSpaceOnUse">
<stop stop-color="#F27A54"/>
<stop offset="1" stop-color="#A154F2"/>
</linearGradient>
<linearGradient id="paint4_linear" x1="-2.37589" y1="35.478" x2="71.8148" y2="35.478" gradientUnits="userSpaceOnUse">
<stop stop-color="#F27A54"/>
<stop offset="1" stop-color="#A154F2"/>
</linearGradient>
</defs>
</svg>
