<svg width="28" height="28" viewBox="0 0 28 28" fill="none" xmlns="http://www.w3.org/2000/svg">
<g opacity="0.5">
<path fill-rule="evenodd" clip-rule="evenodd" d="M6.87054 6.91608C7.37648 6.41014 8.19676 6.41014 8.7027 6.91608L20.6117 18.8251C21.1177 19.3311 21.1177 20.1513 20.6117 20.6573C20.1058 21.1632 19.2855 21.1632 18.7796 20.6573L6.87054 8.74824C6.3646 8.2423 6.3646 7.42202 6.87054 6.91608Z" fill="#6D6D6D"/>
<path fill-rule="evenodd" clip-rule="evenodd" d="M20.612 6.9162C21.1179 7.42213 21.1179 8.24242 20.612 8.74836L8.70296 20.6574C8.19702 21.1633 7.37673 21.1633 6.8708 20.6574C6.36486 20.1515 6.36486 19.3312 6.8708 18.8252L18.7798 6.9162C19.2858 6.41026 20.1061 6.41026 20.612 6.9162Z" fill="#6D6D6D"/>
</g>
</svg>
