<svg width="16" height="16" viewBox="0 0 16 16" fill="none" xmlns="http://www.w3.org/2000/svg">
<path d="M8 0C3.58867 0 0 3.58867 0 8C0 12.4113 3.58867 16 8 16C12.4113 16 16 12.4113 16 8C16 3.58867 12.4113 0 8 0ZM2.21733 11.304C2.74733 11.238 3.242 11.0107 3.63333 10.6273C4.72333 9.538 4.026 8.78733 4.69467 7.96333C4.86133 7.76667 5.14867 7.51467 5.57867 7.42933C7.028 7.11667 8.03933 5.866 8.03933 4.38733C8.03933 3.606 8.13 2.54867 7.314 1.36933C8.19267 1.27933 9.06333 1.36267 9.90933 1.616C9.73733 2.806 9.97 4.03333 10.598 5.08667C11.664 6.846 13.386 6.47733 14.45 6.34933C14.5707 6.82 14.642 7.30933 14.656 7.814C12.8373 7.29067 12.8773 9.44267 11.4593 8.88333C7.60267 7.32733 4.88467 11.4327 7.494 14.6413C5.23533 14.4707 3.28867 13.1713 2.21733 11.304Z" fill="black"/>
<path d="M8 0C3.58867 0 0 3.58867 0 8C0 12.4113 3.58867 16 8 16C12.4113 16 16 12.4113 16 8C16 3.58867 12.4113 0 8 0ZM2.21733 11.304C2.74733 11.238 3.242 11.0107 3.63333 10.6273C4.72333 9.538 4.026 8.78733 4.69467 7.96333C4.86133 7.76667 5.14867 7.51467 5.57867 7.42933C7.028 7.11667 8.03933 5.866 8.03933 4.38733C8.03933 3.606 8.13 2.54867 7.314 1.36933C8.19267 1.27933 9.06333 1.36267 9.90933 1.616C9.73733 2.806 9.97 4.03333 10.598 5.08667C11.664 6.846 13.386 6.47733 14.45 6.34933C14.5707 6.82 14.642 7.30933 14.656 7.814C12.8373 7.29067 12.8773 9.44267 11.4593 8.88333C7.60267 7.32733 4.88467 11.4327 7.494 14.6413C5.23533 14.4707 3.28867 13.1713 2.21733 11.304Z" fill="url(#paint0_linear)"/>
<defs>
<linearGradient id="paint0_linear" x1="0" y1="8" x2="16" y2="8" gradientUnits="userSpaceOnUse">
<stop stop-color="#F27A54"/>
<stop offset="1" stop-color="#A154F2"/>
</linearGradient>
</defs>
</svg>
