<svg width="72" height="61" viewBox="0 0 72 61" fill="none" xmlns="http://www.w3.org/2000/svg">
<path d="M69.2623 14.0075C68.6752 13.2737 67.811 12.6133 66.8163 13.0046C65.8216 13.396 66.6369 14.1706 66.6614 14.7658C66.6013 15.3329 66.3727 15.8691 66.005 16.3051C65.6373 16.7411 65.1475 17.0569 64.5986 17.2118C63.4734 17.3667 63.4 16.3964 63.1636 15.7034C62.8374 14.7087 62.5684 13.6977 62.3482 12.6867C61.9487 10.9989 61.3535 9.50686 59.2826 9.3764C59.5435 8.74044 59.8778 8.4143 60.424 8.56107C61.4269 8.78121 61.4921 8.1697 61.802 7.41144C62.6662 5.31603 61.6797 3.5549 60.9866 1.76931C60.7509 1.1698 60.3073 0.675125 59.737 0.375715C59.1666 0.0763039 58.5075 -0.00784811 57.8802 0.13864C56.5101 0.427182 55.1718 0.850498 53.885 1.40241C53.6505 1.5251 53.456 1.71238 53.3245 1.94211C53.193 2.17184 53.1301 2.43442 53.1431 2.6988C53.1172 3.54611 53.3021 4.38658 53.6812 5.14481C54.6678 7.52559 54.7004 7.59082 52.8659 9.29487C51.9771 10.1102 52.2136 10.42 53.404 10.5749C52.5886 10.9989 51.9608 11.3332 51.333 11.7001C49.5311 12.76 47.6233 13.6569 46.123 15.1734C45.3077 15.9888 45.3077 16.69 46.0333 17.6195C47.876 20.0655 50.534 21.8021 52.1891 24.7618C51.9977 24.8426 51.817 24.9467 51.651 25.0716C49.7024 26.7594 48.6343 28.6673 49.9143 31.2845C50.0716 31.686 50.1249 32.1207 50.0694 32.5483C50.0138 32.9759 49.8511 33.3826 49.5964 33.7305C48.7464 35.2791 48.1101 36.9357 47.7048 38.6551C47.3396 40.3044 46.443 41.7882 45.1528 42.8786C43.9078 43.9279 42.9791 45.3026 42.4703 46.8493C41.3859 49.8986 40.3994 53.0377 36.9505 54.4237C35.9639 54.8151 36.3716 55.6223 36.8527 56.2501C37.8311 57.5465 39.2497 58.4026 40.22 59.7642C40.5678 60.1645 41.008 60.474 41.5024 60.6658C41.9968 60.8576 42.5306 60.9259 43.0574 60.8649C43.4895 60.8649 43.9379 60.8078 44.1418 60.3757C44.3456 59.9436 43.9542 59.5604 43.6036 59.3728C42.2828 58.5575 42.2828 57.4894 42.7883 56.2419C42.9677 55.8098 43.2531 55.4266 42.6579 55.0352C42.185 54.7091 42.5682 54.2688 42.7394 53.9182C43.6036 52.0674 44.5739 50.2818 45.6175 48.5207C47.1014 46.0013 49.2865 44.1179 51.0803 41.892C52.5968 39.9515 53.8606 37.8643 55.3526 35.671L59.4864 40.4407C57.3421 41.0196 55.9804 43.0661 54.7085 45.0963C54.1454 45.9942 53.3961 46.7609 52.5114 47.3446C51.6267 47.9283 50.6271 48.3154 49.5801 48.4799C48.0309 48.7979 47.7782 49.385 48.5854 50.7792C49.0256 51.5456 49.8899 52.1979 49.8817 53.0621C49.8817 54.44 50.6563 55.3125 51.3983 56.2419C51.8712 56.8371 52.4011 57.6851 53.3062 57.31C54.2112 56.935 53.7709 56.0218 53.7138 55.3451C53.51 52.736 53.9095 50.3389 55.9397 48.4555C57.9501 46.5335 60.1678 44.8408 62.5521 43.4085C65.3079 41.7779 64.9981 40.4489 64.1827 38.3372C63.8765 37.6146 63.5252 36.9121 63.1309 36.2336C61.7274 33.9584 60.0876 31.8376 58.2389 29.9066C57.9373 29.556 57.5459 29.2788 57.603 28.7162C57.9373 25.1776 59.7799 22.1935 61.1497 18.9321C61.435 19.348 61.59 19.5518 61.7367 19.7475C63.1391 21.9081 63.7424 22.0223 65.5443 20.1307C66.7592 18.8425 67.7621 17.3504 68.8954 15.9806C69.352 15.361 69.8167 14.6761 69.2623 14.0075ZM53.0697 21.6554C52.1484 21.9163 51.439 21.0357 50.9335 20.3182C50.216 19.299 49.6371 18.1902 49.0012 17.1139C48.9441 17.0243 48.8381 16.9183 48.8544 16.8449C49.2865 15.3365 50.8112 15.573 51.8304 15.0022C52.4827 14.6353 53.0615 14.7087 53.2083 15.6056C53.4203 16.8856 53.6241 18.1657 53.7954 19.2338C53.5589 20.2285 54.04 21.37 53.0697 21.6554Z" fill="#B17998"/>
<path d="M24.1905 0.0488281H20.9863V18.6303H24.1905V0.0488281Z" fill="#B07997"/>
<path d="M44.3293 0H29.637V3.16351H35.3769V18.6386H38.5812V3.16351H44.3293V0Z" fill="#B07997"/>
<path d="M15.2463 3.16351V0H5.1524V0.0489202V3.16351V7.73754V10.901V18.6386H8.35668V10.901H13.5178V7.73754H8.35668V3.16351H15.2463Z" fill="#B07997"/>
<path d="M32.8657 36.7553H16.771V42.3485H27.1502C26.5378 44.5964 25.2124 46.5849 23.3733 48.0152C21.5341 49.4455 19.2805 50.2404 16.951 50.2803C14.6214 50.3203 12.3419 49.6033 10.4547 48.237C8.56752 46.8707 7.17469 44.9288 6.48547 42.7033C5.79625 40.4777 5.84785 38.0885 6.63253 35.8948C7.41721 33.701 8.89258 31.8212 10.837 30.5376C12.7814 29.254 15.0898 28.6361 17.4154 28.7766C19.741 28.9172 21.9583 29.8086 23.7339 31.317L27.6802 27.3708C24.7751 24.7377 21.0299 23.2209 17.1113 23.0903C13.1928 22.9596 9.35492 24.2236 6.28087 26.6572C3.20683 29.0909 1.09603 32.5364 0.324123 36.3804C-0.447779 40.2244 0.169304 44.2177 2.06555 47.6494C3.96179 51.0811 7.01416 53.7287 10.6794 55.1209C14.3447 56.5131 18.385 56.5597 22.0814 55.2522C25.7778 53.9448 28.8903 51.3683 30.8651 47.9811C32.8399 44.594 33.5488 40.6161 32.8657 36.7553Z" fill="#E07D94"/>
<path d="M50.6645 24.7211L50.1997 23.9058C46.8453 24.9184 43.9062 26.9846 41.818 29.7984C39.7297 32.6121 38.6033 36.0236 38.6057 39.5276C38.6031 42.4435 39.3891 45.3058 40.8804 47.8114C41.3696 46.2378 42.5111 43.4249 44.4435 42.0062C44.246 41.2058 44.1448 40.3846 44.1418 39.5602C44.1417 37.841 44.5532 36.1467 45.3419 34.619C46.1305 33.0914 47.2734 31.7747 48.6751 30.779C46.9465 27.3709 50.6645 24.7211 50.6645 24.7211Z" fill="#E07D95"/>
<path d="M60.0246 24.0197C59.2983 25.7221 58.81 27.5164 58.5733 29.352C60.9436 30.1935 62.9456 31.8363 64.2336 33.9966C65.5217 36.1569 66.015 38.6992 65.6283 41.1845C65.2417 43.6698 63.9993 45.942 62.1158 47.6089C60.2323 49.2758 57.8259 50.2327 55.312 50.3143C54.674 52.0912 54.4427 53.9886 54.6353 55.8668H54.9288C58.8411 55.9114 62.639 54.5478 65.6295 52.025C68.62 49.5021 70.6037 45.9881 71.2187 42.1242C71.8337 38.2603 71.0389 34.3041 68.9794 30.9775C66.9199 27.6509 63.733 25.1756 60.0002 24.0034L60.0246 24.0197Z" fill="#E07D95"/>
</svg>
