<svg width="16" height="16" viewBox="0 0 16 16" fill="none" xmlns="http://www.w3.org/2000/svg">
<path d="M14.7162 10.5022C13.7366 10.5022 12.7747 10.349 11.8633 10.0478C11.5041 9.92524 11.0787 9.99165 10.7841 10.168C10.6468 10.2501 10.5309 10.3635 10.4033 10.4599C9.42322 11.1997 8.07191 11.3422 7.09871 10.5933C6.50026 10.1328 5.98203 9.62553 5.51505 9.04254C4.67858 7.99829 4.83974 6.52107 5.64408 5.45188C5.98654 5.10988 6.10938 4.61029 5.96221 4.14154C5.65971 3.22529 5.50604 2.26392 5.50604 1.28392C5.50608 0.575958 4.93013 0 4.22221 0H1.28387C0.575958 0 0 0.575958 0 1.28387C0 9.39846 6.60158 16 14.7162 16C15.4241 16 16 15.424 16 14.7161V11.786C16 11.0781 15.424 10.5022 14.7162 10.5022Z" fill="url(#paint0_linear)"/>
<defs>
<linearGradient id="paint0_linear" x1="-3.36843" y1="8" x2="19.3685" y2="8" gradientUnits="userSpaceOnUse">
<stop stop-color="#F27A54"/>
<stop offset="1" stop-color="#A154F2"/>
</linearGradient>
</defs>
</svg>
