<svg width="58" height="72" viewBox="0 0 58 72" fill="none" xmlns="http://www.w3.org/2000/svg">
<path opacity="0.5" d="M39.7 28C45.5 29.2 49.9333 31.6 53 35.2C56.1333 38.7333 57.7 43.0333 57.7 48.1C57.7 52.2333 56.5667 56.0667 54.3 59.6C52.1 63.1333 48.7 66 44.1 68.2C39.5667 70.3333 33.9333 71.4 27.2 71.4C22.2667 71.4 17.3667 70.8 12.5 69.6C7.7 68.4 3.53333 66.7 0 64.5L7.2 49.6C9.93333 51.4667 13 52.9 16.4 53.9C19.8667 54.9 23.2667 55.4 26.6 55.4C30 55.4 32.7 54.7667 34.7 53.5C36.7 52.2333 37.7 50.4333 37.7 48.1C37.7 43.5667 34.1333 41.3 27 41.3H18.7V28.8L31.2 15.3H3.6V0H54.2V12.4L39.7 28Z" fill="url(#paint0_linear)"/>
<defs>
<linearGradient id="paint0_linear" x1="-12.1474" y1="35.7" x2="69.8474" y2="35.7" gradientUnits="userSpaceOnUse">
<stop stop-color="#F27A54"/>
<stop offset="1" stop-color="#A154F2"/>
</linearGradient>
</defs>
</svg>
