<svg width="59" height="72" viewBox="0 0 59 72" fill="none" xmlns="http://www.w3.org/2000/svg">
<path opacity="0.5" d="M58.1 55.7V71.4H3.6V59L29.8 34.5C32.3333 32.1 34.0333 30.0667 34.9 28.4C35.7667 26.6667 36.2 24.9333 36.2 23.2C36.2 20.9333 35.4333 19.1667 33.9 17.9C32.3667 16.6333 30.1333 16 27.2 16C24.6 16 22.2 16.6 20 17.8C17.8667 18.9333 16.1 20.6 14.7 22.8L0 14.6C2.73333 10.0667 6.56667 6.5 11.5 3.90001C16.4333 1.3 22.2667 0 29 0C34.3333 0 39.0333 0.866667 43.1 2.6C47.2333 4.33333 50.4333 6.83333 52.7 10.1C55.0333 13.3 56.2 17.0333 56.2 21.3C56.2 25.1 55.3667 28.7 53.7 32.1C52.1 35.4333 48.9667 39.2333 44.3 43.5L31.1 55.7H58.1Z" fill="url(#paint0_linear)"/>
<defs>
<linearGradient id="paint0_linear" x1="-12.2316" y1="35.7" x2="70.3316" y2="35.7" gradientUnits="userSpaceOnUse">
<stop stop-color="#F27A54"/>
<stop offset="1" stop-color="#A154F2"/>
</linearGradient>
</defs>
</svg>
